# xmcd
# 
# Track frame offsets:
#     150
#     5898
#     21126
#     33318
#     42339
#     55078
#     70851
#     90984
#     103937
#     135336
#     153721
#     164494
#     178786
#     188550
#     200430
#     218593
#     233363
#     246518
#     265095
#     282973
#     303004
# 
# Disc length: 4301
# 
# Revision: 1
# Processed by: cddbd v1.5.2PL0 Copyright (c) Steve Scherf et al.
# Submitted via: fre:ac v1.0.31
# 
DISCID=1a10cb15
DTITLE=Michael Nesmith - Live At The Troubadour
DYEAR=2018
DGENRE=Rock/Pop
TTITLE0=Intro
TTITLE1=Nevada Fighter
TTITLE2=Calico Girlfriend
TTITLE3=Nine Times Blue
TTITLE4=Little Red Rider
TTITLE5=The Crippled Lion
TTITLE6=Joanne
TTITLE7=Dedicated Friend
TTITLE8=Grand Ennui
TTITLE9=Lady Of The Valley
TTITLE10=50 Years Ago
TTITLE11=Propinquity (I've Just Begun To Care)
TTITLE12=Different Drum
TTITLE13=Papa Gene's Blues
TTITLE14=Tengo Amore
TTITLE15=Keys To The Car
TTITLE16=Mama Nantucket
TTITLE17=Bye Bye Bye
TTITLE18=Some Of Shelly's Blues
TTITLE19=Silver Moon
TTITLE20=Thanx For The Ride
EXTD=
EXTT0=
EXTT1=
EXTT2=
EXTT3=
EXTT4=
EXTT5=
EXTT6=
EXTT7=
EXTT8=
EXTT9=
EXTT10=
EXTT11=
EXTT12=
EXTT13=
EXTT14=
EXTT15=
EXTT16=
EXTT17=
EXTT18=
EXTT19=
EXTT20=
PLAYORDER=
